<svg width="893" height="580" viewBox="0 0 893 580" fill="none" xmlns="http://www.w3.org/2000/svg">
<path d="M348.057 190.268C348.057 190.268 340.902 137.803 328.979 152.112C317.055 166.42 328.979 187.883 328.979 187.883L338.518 199.807L348.057 192.653V190.268Z" fill="#FFB8B8"/>
<path d="M376.674 206.961C376.674 206.961 352.826 180.729 348.057 185.498C343.287 190.268 328.979 192.653 331.363 202.192C333.748 211.731 383.829 242.733 383.829 242.733L376.674 206.961Z" fill="#851E1E"/>
<path d="M512.607 204.577V223.655C512.607 223.655 514.991 266.581 500.683 264.196C486.374 261.811 493.528 226.04 493.528 226.04L495.913 204.577L512.607 204.577Z" fill="#FFB8B8"/>
<path d="M505.452 342.894C505.452 342.894 526.915 376.281 534.07 378.666C541.224 381.05 579.38 402.514 584.15 423.977L617.537 466.903L600.844 488.366C600.844 488.366 524.531 407.283 503.067 400.129C481.604 392.974 460.141 357.203 460.141 357.203L505.452 342.894Z" fill="#FFB8B8"/>
<path d="M336.133 288.044C336.133 288.044 290.822 295.198 297.976 323.816C305.131 352.433 374.289 412.053 374.289 412.053L376.674 426.361L402.907 431.131L414.831 419.207L412.446 412.053C412.446 412.053 383.829 385.82 381.444 376.281C379.059 366.742 352.826 328.585 340.902 326.201L357.596 316.662L336.133 288.044Z" fill="#FFB8B8"/>
<path d="M610.383 466.903C610.383 466.903 600.844 452.594 615.152 454.979C629.461 457.364 639 459.748 639 469.287C639 478.827 627.076 545.6 612.767 540.831C598.459 536.061 610.383 514.598 610.383 514.598C610.383 514.598 603.228 495.52 598.459 493.135C593.689 490.751 593.689 478.827 598.459 478.827C603.228 478.827 612.767 471.672 610.383 466.903Z" fill="#5E5AFF"/>
<path d="M407.676 414.437C407.676 414.437 407.676 402.514 417.215 414.437C426.755 426.361 431.524 435.9 421.985 443.055C412.446 450.209 379.059 466.903 379.059 466.903C379.059 466.903 343.287 474.057 348.057 457.364C348.057 457.364 371.905 445.44 371.905 435.9C371.905 426.361 371.905 409.668 379.059 414.437C386.213 419.207 407.676 421.592 407.676 414.437Z" fill="#5E5AFF"/>
<path d="M452.987 235.579C452.987 235.579 486.374 240.348 483.989 288.044C483.989 288.044 526.915 330.97 514.991 345.279C503.067 359.587 476.835 385.82 467.296 378.666C457.757 371.511 429.139 316.661 429.139 316.661C429.139 316.661 362.365 340.509 350.442 328.585C338.518 316.661 326.594 288.044 326.594 288.044L386.213 257.042L452.987 235.579Z" fill="#2F2E41"/>
<path d="M359.981 99.6464C375.786 99.6464 388.598 86.834 388.598 71.029C388.598 55.2241 375.786 42.4117 359.981 42.4117C344.176 42.4117 331.363 55.2241 331.363 71.029C331.363 86.834 344.176 99.6464 359.981 99.6464Z" fill="#FFB8B8"/>
<path d="M381.444 73.4138C381.444 73.4138 398.137 99.6464 402.907 102.031C407.676 104.416 369.52 128.264 369.52 128.264C369.52 128.264 369.52 97.2616 357.596 90.1072L381.444 73.4138Z" fill="#FFB8B8"/>
<path d="M383.828 99.6464C383.828 99.6464 421.985 87.7225 429.139 106.801C436.294 125.879 452.987 161.651 450.602 185.498C448.218 209.346 443.448 204.577 450.602 211.731C457.757 218.885 462.526 214.116 460.141 223.655C457.757 233.194 455.372 233.194 457.757 237.964C460.141 242.733 429.139 259.427 402.907 261.811L376.674 264.196C376.674 264.196 376.674 221.27 371.905 211.731C367.135 202.192 357.596 183.114 357.596 175.959V157.03C357.596 144.43 360.884 132.049 367.135 121.109C367.135 121.109 381.444 99.6464 383.828 99.6464Z" fill="#BF0000"/>
<path d="M412.446 109.185C412.446 109.185 500.683 116.34 510.222 140.188C519.761 164.035 524.531 211.731 514.991 211.731C505.452 211.731 493.528 216.501 491.144 211.731C488.759 206.962 479.22 159.266 476.835 159.266C474.45 159.266 402.907 152.111 402.907 152.111C402.907 152.111 371.905 113.955 412.446 109.185Z" fill="#B50101"/>
<path d="M358.831 63.9344C358.831 63.9344 351.237 50.737 341.744 62.2001C332.251 73.6633 316.809 52.5978 319.179 48.1028C321.55 43.6079 329.922 48.3049 344.269 43.6149C358.615 38.925 386.252 29.3706 390.88 60.5374C395.509 91.7042 384.485 88.4368 384.485 88.4368C384.485 88.4368 379.433 60.8197 374.866 68.7525L370.299 76.6854L366.338 77.6603L358.831 63.9344Z" fill="#2F2E41"/>
<path d="M320.845 421.548L321.363 421.38L317.338 408.914C324.241 414.941 328.702 423.355 329.859 432.53L329.576 432.817C326.933 428.854 324.015 425.088 320.845 421.548Z" fill="white"/>
<path d="M314.228 453.957L314.035 453.697C317.969 453.261 321.836 452.365 325.553 451.029V454.948C325.888 454.652 326.187 454.32 326.444 453.957C324.021 458.424 320.719 462.376 316.728 465.586C312.737 468.795 308.136 471.198 303.192 472.655C302.919 470.389 302.702 468.122 302.541 465.856L314.228 453.957Z" fill="white"/>
<path d="M293.435 399.808C302.211 400.19 310.613 403.391 317.338 408.914L301.83 404.35C299.146 402.643 296.34 401.126 293.435 399.808Z" fill="white"/>
<path d="M267.607 411.547L258.779 423.142L255.874 424.85C258.585 416.845 263.797 410.029 270.671 405.5C269.602 407.486 268.647 409.537 267.811 411.641L267.607 411.547Z" fill="white"/>
<path d="M274.085 465.078C278.56 464.431 282.989 463.54 287.349 462.411L301.857 465.75C302.02 467.961 302.248 470.202 302.541 472.472C293.473 474.739 283.831 474.075 275.233 470.59H275.991L274.085 465.078Z" fill="white"/>
<path d="M295.85 412.014L296.067 412.206C289.923 414 283.835 415.938 277.803 418.02V417.78L268.394 412.662C269.555 409.876 270.934 407.184 272.52 404.614C278.172 401.565 284.477 399.917 290.904 399.808C294.147 401.162 297.277 402.769 300.265 404.614L295.85 412.014Z" fill="white"/>
<path d="M319.472 422.573C322.848 426.113 325.939 429.896 328.721 433.889L328.46 434.186L324.998 448.777V449.441C321.116 450.86 317.058 451.777 312.928 452.167L305.956 442.57C307.815 436.921 309.164 431.127 309.987 425.253L319.472 422.573Z" fill="white"/>
<path d="M274.039 435.094C278.436 439.198 283.005 443.116 287.744 446.848L286.206 447.359V460.971C282.252 462.07 278.236 462.931 274.179 463.55L273.736 462.179L262.454 452.283C261.759 447.625 261.47 442.915 261.592 438.206L274.039 435.094Z" fill="white"/>
<path d="M277.205 419.437C283.654 417.286 290.16 415.296 296.722 413.467L309.371 425.177C308.576 430.699 307.306 436.15 305.574 441.474V441.336L289.128 446.476C283.921 442.573 278.906 438.47 274.085 434.167L277.205 419.437Z" fill="white"/>
<path d="M260.889 436.749C260.661 441.899 260.887 447.058 261.565 452.167H256.739C253.193 444.006 252.629 434.835 255.146 426.291L257.559 424.85L260.889 436.749Z" fill="white"/>
<path d="M255.253 424.859C255.065 425.392 254.892 425.933 254.735 426.482L257.088 425.094L260.287 436.55C260.065 441.507 260.286 446.474 260.946 451.392H256.241C260.073 459.984 266.966 466.843 275.578 470.633H276.308L274.473 464.893C278.782 464.214 283.048 463.279 287.247 462.094L301.22 465.599C301.377 467.92 301.597 470.272 301.879 472.655L303.008 472.35C302.742 470.092 302.53 467.833 302.373 465.575L313.759 453.815L313.571 453.556C317.412 453.121 321.187 452.229 324.816 450.898V454.802C325.143 454.508 325.435 454.176 325.686 453.815C329.154 447.258 330.51 439.79 329.568 432.433L329.285 432.715C326.637 428.811 323.712 425.101 320.534 421.613L321.052 421.449L317.029 409.194L316.629 408.864L301.55 404.325C298.939 402.628 296.211 401.119 293.387 399.808H291.505H290.517C293.678 401.133 296.731 402.706 299.644 404.513L295.316 411.852L295.527 412.04C289.536 413.796 283.6 415.694 277.719 417.732V417.497L268.544 412.487C269.676 409.758 271.021 407.124 272.567 404.607C271.861 404.999 271.179 405.407 270.521 405.83C269.413 407.801 268.423 409.835 267.556 411.922H267.368L258.217 423.424L255.253 424.859ZM305.972 442.501C307.817 436.7 309.155 430.75 309.972 424.718L319.381 421.825C322.73 425.46 325.797 429.344 328.556 433.445L328.297 433.75L324.863 448.734V449.439C321.012 450.896 316.986 451.837 312.889 452.239L305.972 442.501ZM289.105 446.452C284.039 442.469 279.162 438.282 274.473 433.892L277.484 418.838C283.757 416.642 290.085 414.612 296.468 412.745L308.772 424.695C307.999 430.33 306.764 435.892 305.078 441.324V441.183L289.105 446.452ZM261.416 438.173L273.979 434.997C278.417 439.153 283.028 443.12 287.811 446.899L286.259 447.417V461.2C282.268 462.313 278.215 463.185 274.12 463.811L273.673 462.423L262.287 452.403C261.602 447.692 261.327 442.931 261.464 438.173H261.416Z" fill="#050505"/>
</svg>
