<?xml version="1.0" encoding="UTF-8"?><svg xmlns="http://www.w3.org/2000/svg" xmlns:xlink="http://www.w3.org/1999/xlink" viewBox="0 0 120 120"><defs><clipPath id="clippath"><circle cx="60" cy="60" r="53.81" fill="none"/></clipPath></defs><g isolation="isolate"><g id="Capa_1"><g><g opacity=".5"><path d="M60,5.75c29.91,0,54.25,24.34,54.25,54.25s-24.34,54.25-54.25,54.25S5.75,89.91,5.75,60,30.09,5.75,60,5.75m0-5C27.28,.75,.75,27.28,.75,60s26.53,59.25,59.25,59.25,59.25-26.53,59.25-59.25S92.72,.75,60,.75h0Z" fill="#88baf2"/></g><circle cx="60" cy="60" r="53.81" fill="#7db3ef"/><path d="M11.06,64.86c0-29.72,24.09-53.81,53.81-53.81,13.62,0,26.06,5.06,35.54,13.41-9.86-11.2-24.3-18.27-40.4-18.27C30.28,6.19,6.19,30.28,6.19,60c0,16.1,7.07,30.54,18.27,40.4-8.34-9.48-13.41-21.92-13.41-35.54Z" mix-blend-mode="overlay" opacity=".07"/><circle cx="60" cy="60" r="53.81" fill="none"/><circle cx="60" cy="60" r="53.81" fill="none"/><g clip-path="url(#clippath)"><g><g><path d="M44.67,50.32c.8,3.29-.52,6.46-2.96,7.08-2.44,.62-5.06-1.54-5.87-4.82-.8-3.29,.52-6.46,2.96-7.08,2.44-.62,5.06,1.54,5.87,4.82Z" fill="#fff"/><path d="M75.31,50.32c-.8,3.29,.52,6.46,2.96,7.08s5.06-1.54,5.87-4.82c.8-3.29-.52-6.46-2.96-7.08-2.44-.62-5.06,1.54-5.87,4.82Z" fill="#f4f1ef"/></g><path d="M77.27,88.02c-5.11-1.37-8.77-5.86-9.07-11.14l-.99-17.48h-16.25l-1.04,18.22c-.3,5.34-4.03,9.86-9.21,11.18l-7.85,1.99c-5.49,1.4-8.96,6.82-7.92,12.39l2.61,13.95H92.44l2.63-14.07c1.03-5.52-2.36-10.91-7.79-12.36l-10.01-2.67Z" fill="#f4f1ef"/><path d="M81.21,46.11c0,14.13-11.48,31.01-21.23,31.01s-21.23-16.89-21.23-31.01,9.5-22.56,21.23-22.56,21.23,8.43,21.23,22.56Z" fill="#fff"/><path d="M87.28,90.69l-10.01-2.67c-1.96-.52-3.7-1.51-5.12-2.82-3.11,3.2-7.47,5.2-12.29,5.2-5.06,0-9.6-2.19-12.74-5.67-1.62,1.95-3.84,3.41-6.42,4.06l-7.85,1.99c-5.49,1.4-8.96,6.82-7.92,12.39l2.61,13.95H92.44l2.63-14.07c1.03-5.52-2.36-10.91-7.79-12.36Z" fill="#db674c"/><path d="M59.86,99.42c6.86,0,13-4.08,17.18-10.52-1.86-.7-3.52-1.93-4.89-3.55-3.11,4.15-7.47,6.73-12.29,6.73-5.06,0-9.6-2.84-12.74-7.35-1.17,1.82-2.65,3.3-4.35,4.31,4.17,6.37,10.28,10.39,17.09,10.39Z" fill="#ce5e4b"/></g></g><path d="M53.61,22.41c-3.9,.48-9.53,.79-13.22,8.54-3.87,8.14-2.14,14.77-2.14,14.77,4.33-.32,4.95,6.94,4.95,6.94l1.19-2.1c.48-3.71,.78-10.75,3.5-12.34,3.21-.32,17.18,5.09,21.05-3.66,9.49,.05,7.21,14.12,7.12,15.81l1.27,2.29s1.24-7.08,4.43-7.07c0,0,1.92-9.56-3.21-16.6-6.29-8.63-17.43-13.89-24.96-6.58Z" fill="#333332"/><g><rect x="44.44" y="47.38" width="13.85" height="9.29" rx="2.1" ry="2.1" fill="none" stroke="#3c3f44" stroke-miterlimit="10" stroke-width="2"/><line x1="58.3" y1="52.02" x2="62.32" y2="52.02" fill="none" stroke="#3c3f44" stroke-miterlimit="10" stroke-width="4"/><rect x="62.32" y="47.38" width="13.85" height="9.29" rx="2.1" ry="2.1" fill="none" stroke="#3c3f44" stroke-miterlimit="10" stroke-width="2"/></g></g></g></g></svg>